<?xml version="1.0" standalone="no"?>
<!DOCTYPE svg PUBLIC "-//W3C//DTD SVG 20010904//EN"
 "http://www.w3.org/TR/2001/REC-SVG-20010904/DTD/svg10.dtd">
<svg version="1.0" xmlns="http://www.w3.org/2000/svg"
 width="16.000000pt" height="16.000000pt" viewBox="0 0 16.000000 16.000000"
 preserveAspectRatio="xMidYMid meet">
<metadata>
Created by potrace 1.11, written by Peter Selinger 2001-2013
</metadata>
<g transform="translate(0.000000,16.000000) scale(0.011111,-0.011111)"
fill="#000000" stroke="none">
<path d="M167 727 c-86 -195 -157 -357 -157 -360 0 -4 40 -7 88 -7 l89 0 63
142 c76 173 94 215 119 271 10 23 26 58 34 77 8 19 22 52 31 73 16 37 16 37
-6 37 -20 0 -37 -33 -148 -280 l-124 -280 -38 0 c-21 0 -38 4 -38 10 0 5 53
130 118 277 66 148 127 287 137 311 l19 42 66 0 67 0 139 -312 c76 -171 140
-315 142 -320 2 -4 -93 -8 -212 -8 -119 0 -216 1 -216 3 0 1 30 70 66 152 36
83 68 156 71 163 3 6 8 12 12 12 6 0 81 -174 81 -190 0 -5 -21 -10 -46 -12
-38 -2 -48 -7 -55 -25 -8 -23 -7 -23 81 -23 68 0 90 3 90 13 0 8 -24 67 -53
133 -30 65 -64 142 -76 169 l-22 50 -30 -65 c-42 -91 -62 -136 -128 -285 l-58
-130 275 -3 c151 -1 277 0 279 2 4 4 -19 59 -118 284 -11 23 -27 61 -38 85
-10 23 -49 111 -86 195 l-67 152 -97 0 -97 0 -157 -353z"/>
<path d="M630 1074 c0 -3 23 -58 51 -123 49 -111 61 -137 107 -241 10 -25 50
-114 87 -197 l67 -153 97 0 97 0 152 343 c84 188 152 350 152 360 0 16 -20 17
-276 17 -151 0 -273 -3 -271 -7 2 -5 50 -113 107 -241 57 -128 107 -229 110
-225 10 12 150 332 150 343 0 6 -37 10 -90 10 -49 0 -90 -3 -90 -6 0 -3 5 -14
10 -25 8 -15 21 -19 60 -19 l49 0 -18 -42 c-46 -107 -73 -159 -78 -154 -6 6
-143 314 -143 322 0 6 416 5 422 -2 3 -3 -4 -26 -17 -52 -12 -26 -37 -81 -55
-122 -18 -41 -45 -103 -61 -138 -26 -54 -68 -149 -127 -284 l-16 -38 -66 0
-67 0 -103 233 c-56 127 -111 252 -122 277 -31 70 -51 114 -55 123 -2 4 16 7
40 7 l44 0 43 -97 c48 -111 54 -124 140 -320 56 -127 66 -143 87 -143 13 0 22
3 20 8 -5 9 -19 40 -153 344 l-109 248 -87 0 c-49 0 -88 -3 -88 -6z"/>
</g>
</svg>
