<?xml version="1.0" standalone="no"?>
<!DOCTYPE svg PUBLIC "-//W3C//DTD SVG 20010904//EN"
 "http://www.w3.org/TR/2001/REC-SVG-20010904/DTD/svg10.dtd">
<svg version="1.0" xmlns="http://www.w3.org/2000/svg"
 width="16.000000pt" height="16.000000pt" viewBox="0 0 16.000000 16.000000"
 preserveAspectRatio="xMidYMid meet">
<metadata>
Created by potrace 1.11, written by Peter Selinger 2001-2013
</metadata>
<g transform="translate(0.000000,16.000000) scale(0.011111,-0.011111)"
fill="#000000" stroke="none">
<path d="M306 1048 c-7 -18 -79 -178 -160 -355 -80 -178 -146 -325 -146 -328
0 -3 36 -5 81 -3 l80 3 125 273 c68 151 127 285 131 299 16 66 -22 -7 -142
-271 l-129 -286 -59 0 c-32 0 -56 3 -54 8 2 4 71 157 153 339 l149 333 80 0
80 0 153 -336 c84 -185 151 -338 149 -340 -2 -3 -113 -3 -245 -2 l-241 3 74
165 c41 91 81 178 88 194 13 28 13 27 66 -90 29 -66 55 -124 58 -131 3 -8 -13
-13 -53 -15 -87 -5 -78 -23 11 -23 89 0 88 -4 31 118 -19 39 -48 103 -65 141
-18 41 -35 66 -40 60 -7 -7 -176 -375 -198 -431 -4 -10 54 -13 271 -13 152 0
276 3 276 6 0 3 -27 65 -60 137 -32 73 -104 231 -159 352 l-99 220 -96 3 -95
3 -15 -33z"/>
<path d="M610 1075 c0 -6 172 -390 269 -600 l50 -110 96 0 95 0 64 140 c35 77
107 236 160 352 53 117 96 215 96 218 0 3 -124 5 -275 5 -151 0 -275 -2 -275
-4 0 -10 193 -432 201 -440 5 -6 19 15 35 50 14 32 37 84 51 114 50 107 63
142 58 149 -7 13 -138 6 -143 -7 -2 -8 15 -12 58 -12 46 0 61 -3 57 -12 -2 -7
-29 -67 -58 -132 l-54 -119 -21 49 c-13 27 -52 114 -88 194 l-65 145 241 3
c132 1 243 1 245 -1 2 -2 -66 -155 -149 -340 l-153 -337 -80 0 -81 0 -149 331
c-83 182 -151 335 -153 340 -2 5 23 9 55 9 l59 0 84 -187 c138 -307 182 -399
187 -386 4 10 -66 170 -209 483 -17 36 -34 75 -39 88 -8 20 -15 22 -89 22 -44
0 -80 -2 -80 -5z"/>
</g>
</svg>
